<svg width="24" height="24" viewBox="0 0 24 24" fill="none" xmlns="http://www.w3.org/2000/svg">
  <rect x="1" y="1" width="22" height="22" rx="8" stroke="#202656" stroke-width="2"/>
  <path d="M7.31121 10.7383C6.93468 10.3343 6.3019 10.312 5.89787 10.6886C5.49384 11.0651 5.47156 11.6979 5.84809 12.1019L7.31121 10.7383ZM11.3883 16.5799L10.6567 17.2617C10.8659 17.4861 11.1665 17.6021 11.4721 17.5764C11.7778 17.5507 12.0548 17.3861 12.2235 17.1299L11.3883 16.5799ZM18.2555 7.97011C18.5593 7.50886 18.4316 6.8887 17.9703 6.58495C17.5091 6.2812 16.8889 6.40888 16.5852 6.87013L18.2555 7.97011ZM5.84809 12.1019L10.6567 17.2617L12.1199 15.8981L7.31121 10.7383L5.84809 12.1019ZM12.2235 17.1299L18.2555 7.97011L16.5852 6.87013L10.5531 16.0299L12.2235 17.1299Z" fill="#202656"/>
</svg>